HIERARCHY
ROOT hip
{
  OFFSET 0 0 0
  CHANNELS 6 Xposition Yposition Zposition Zrotation Yrotation Xrotation
  JOINT abdomen
  {
    OFFSET 0 20.6881 -0.73152
    CHANNELS 3 Zrotation Xrotation Yrotation
    JOINT chest
    {
      OFFSET 0 11.7043 -0.48768
      CHANNELS 3 Zrotation Xrotation Yrotation
      JOINT neck
      {
        OFFSET 0 22.1894 -2.19456
        CHANNELS 3 Zrotation Xrotation Yrotation
        JOINT head
        {
          OFFSET -0.24384 7.07133 1.2192
          CHANNELS 3 Zrotation Xrotation Yrotation
          JOINT leftEye
          {
            OFFSET 4.14528 8.04674 8.04672
            CHANNELS 3 Zrotation Xrotation Yrotation
            End Site
            {
              OFFSET 1 0 0
            }
          }
          JOINT rightEye
          {
            OFFSET -3.6576 8.04674 8.04672
            CHANNELS 3 Zrotation Xrotation Yrotation
            End Site
            {
              OFFSET 1 0 0
            }
          }
        }
      }
      JOINT rCollar
      {
        OFFSET -2.68224 19.2634 -4.8768
        CHANNELS 3 Zrotation Xrotation Yrotation
        JOINT rShldr
        {
          OFFSET -8.77824 -1.95073 1.46304
          CHANNELS 3 Zrotation Xrotation Yrotation
          JOINT rForeArm
          {
            OFFSET -28.1742 -1.7115 0.48768
            CHANNELS 3 Zrotation Xrotation Yrotation
            JOINT rHand
            {
              OFFSET -22.5879 0.773209 7.07136
              CHANNELS 3 Zrotation Xrotation Yrotation
              JOINT rThumb1
              {
                OFFSET -1.2192 -0.487915 3.41376
                CHANNELS 3 Zrotation Xrotation Yrotation
                JOINT rThumb2
                {
                  OFFSET -3.37035 -0.52449 3.41376
                  CHANNELS 3 Zrotation Xrotation Yrotation
                  End Site
                  {
                    OFFSET -1.78271 -1.18214 1.43049
                  }
                }
              }
              JOINT rIndex1
              {
                OFFSET -7.75947 0.938293 5.60832
                CHANNELS 3 Zrotation Xrotation Yrotation
                JOINT rIndex2
                {
                  OFFSET -2.54057 -0.884171 1.56538
                  CHANNELS 3 Zrotation Xrotation Yrotation
                  End Site
                  {
                    OFFSET -1.62519 -0.234802 1.16502
                  }
                }
              }
              JOINT rMid1
              {
                OFFSET -8.24714 1.18213 3.41376
                CHANNELS 3 Zrotation Xrotation Yrotation
                JOINT rMid2
                {
                  OFFSET -3.10165 -0.590103 1.0647
                  CHANNELS 3 Zrotation Xrotation Yrotation
                  End Site
                  {
                    OFFSET -2.48547 -0.328903 0.83742
                  }
                }
              }
              JOINT rRing1
              {
                OFFSET -8.82822 0.546677 1.51678
                CHANNELS 3 Zrotation Xrotation Yrotation
                JOINT rRing2
                {
                  OFFSET -2.60934 -0.819778 -0.0198488
                  CHANNELS 3 Zrotation Xrotation Yrotation
                  End Site
                  {
                    OFFSET -2.33842 -0.294052 0.168128
                  }
                }
              }
              JOINT rPinky1
              {
                OFFSET -8.27202 -0.0477905 -0.4584
                CHANNELS 3 Zrotation Xrotation Yrotation
                JOINT rPinky2
                {
                  OFFSET -1.82734 -0.647385 -0.700984
                  CHANNELS 3 Zrotation Xrotation Yrotation
                  End Site
                  {
                    OFFSET -1.69225 -0.51767 -0.607171
                  }
                }
              }
            }
          }
        }
      }
      JOINT lCollar
      {
        OFFSET 2.68224 19.2634 -4.8768
        CHANNELS 3 Zrotation Xrotation Yrotation
        JOINT lShldr
        {
          OFFSET 8.77824 -1.95073 1.46304
          CHANNELS 3 Zrotation Xrotation Yrotation
          JOINT lForeArm
          {
            OFFSET 28.1742 -1.7115 0.48768
            CHANNELS 3 Zrotation Xrotation Yrotation
            JOINT lHand
            {
              OFFSET 22.5879 0.773209 7.07136
              CHANNELS 3 Zrotation Xrotation Yrotation
              JOINT lThumb1
              {
                OFFSET 1.2192 -0.487915 3.41376
                CHANNELS 3 Zrotation Xrotation Yrotation
                JOINT lThumb2
                {
                  OFFSET 3.37035 -0.52449 3.41376
                  CHANNELS 3 Zrotation Xrotation Yrotation
                  End Site
                  {
                    OFFSET 1.78271 -1.18214 1.43049
                  }
                }
              }
              JOINT lIndex1
              {
                OFFSET 7.75947 0.938293 5.60832
                CHANNELS 3 Zrotation Xrotation Yrotation
                JOINT lIndex2
                {
                  OFFSET 2.54057 -0.884171 1.56538
                  CHANNELS 3 Zrotation Xrotation Yrotation
                  End Site
                  {
                    OFFSET 1.62519 -0.234802 1.16502
                  }
                }
              }
              JOINT lMid1
              {
                OFFSET 8.24714 1.18213 3.41376
                CHANNELS 3 Zrotation Xrotation Yrotation
                JOINT lMid2
                {
                  OFFSET 3.10165 -0.590103 1.0647
                  CHANNELS 3 Zrotation Xrotation Yrotation
                  End Site
                  {
                    OFFSET 2.48547 -0.328903 0.83742
                  }
                }
              }
              JOINT lRing1
              {
                OFFSET 8.82822 0.546677 1.51678
                CHANNELS 3 Zrotation Xrotation Yrotation
                JOINT lRing2
                {
                  OFFSET 2.60934 -0.819778 -0.0198488
                  CHANNELS 3 Zrotation Xrotation Yrotation
                  End Site
                  {
                    OFFSET 2.33842 -0.294052 0.168128
                  }
                }
              }
              JOINT lPinky1
              {
                OFFSET 8.27202 -0.0477905 -0.4584
                CHANNELS 3 Zrotation Xrotation Yrotation
                JOINT lPinky2
                {
                  OFFSET 1.82734 -0.647385 -0.700984
                  CHANNELS 3 Zrotation Xrotation Yrotation
                  End Site
                  {
                    OFFSET 1.69225 -0.51767 -0.607171
                  }
                }
              }
            }
          }
        }
      }
    }
  }
  JOINT rButtock
  {
    OFFSET -8.77824 4.35084 1.2192
    CHANNELS 3 Zrotation Xrotation Yrotation
    JOINT rThigh
    {
      OFFSET 0 -1.70687 -2.19456
      CHANNELS 3 Zrotation Xrotation Yrotation
      JOINT rShin
      {
        OFFSET 0 -36.8199 0.73152
        CHANNELS 3 Zrotation Xrotation Yrotation
        JOINT rFoot
        {
          OFFSET 0.73152 -45.1104 -5.12064
          CHANNELS 3 Zrotation Xrotation Yrotation
          End Site
          {
            OFFSET -1.1221 -3.69964 12.103
          }
        }
      }
    }
  }
  JOINT lButtock
  {
    OFFSET 8.77824 4.35084 1.2192
    CHANNELS 3 Zrotation Xrotation Yrotation
    JOINT lThigh
    {
      OFFSET 0 -1.70687 -2.19456
      CHANNELS 3 Zrotation Xrotation Yrotation
      JOINT lShin
      {
        OFFSET 0 -36.8199 0.73152
        CHANNELS 3 Zrotation Xrotation Yrotation
        JOINT lFoot
        {
          OFFSET -0.73152 -45.1104 -5.12064
          CHANNELS 3 Zrotation Xrotation Yrotation
          End Site
          {
            OFFSET 1.1221 -3.69964 12.103
          }
        }
      }
    }
  }
}
MOTION
Frames:	4
Frame Time:	0.00833333
197.328 85.3326 3.32808 0.0 0.0 0.0 1.16875 -0.00493883 0.0322837 0.322754 -0.00472404 0.0559151 8.84623e-15 0.0 -3.72722e-17 2.65315e-14 3.18055e-15 -9.00743e-17 -0.0 0.0 0.0 -0.0 0.0 0.0 4.62054e-15 -4.46489e-18 1.49089e-16 9.5815e-14 -6.21202e-17 1.19271e-15 1.60673e-12 -4.79866e-13 0.0 1.83649e-11 4.73381e-13 -4.13472e-14 4.33163e-11 -1.60378e-14 -8.26944e-14 7.47911e-11 -2.8625e-14 -1.4551e-13 4.33223e-11 -1.39149e-14 -8.90555e-14 7.73091 5.47488 0.417314 4.33156e-11 -1.6201e-14 -7.95139e-14 2.90554 0.965183 0.102902 4.33182e-11 -1.60022e-14 -8.34896e-14 10.2786 0.731801 0.0259123 4.33124e-11 -1.55052e-14 -7.31528e-14 2.22167 -0.733487 -0.20892 4.52384e-15 -2.13538e-18 -1.49089e-16 9.18954e-14 3.72721e-17 -7.95139e-16 1.60285e-12 4.81059e-13 -3.49861e-14 1.83571e-11 -4.81655e-13 0.0 4.32979e-11 -3.11652e-15 -8.90555e-14 7.47824e-11 -9.54166e-15 -1.55847e-13 4.32929e-11 -1.59028e-15 -8.5875e-14 -7.73091 5.47488 -0.417314 4.32978e-11 -3.18055e-15 -9.54166e-14 -2.90554 0.965183 -0.102902 4.32894e-11 -2.38542e-15 -8.90555e-14 -10.2786 0.731801 -0.0259123 4.33019e-11 -1.19271e-15 -9.54166e-14 -2.22167 -0.733487 0.20892 -2.03217e-16 0.0 -3.88251e-19 1.35581 -5.84652 -0.122716 0.00113213 5.03401 0.0414054 -0.480819 0.811086 0.0710838 2.03217e-16 0.0 3.88251e-19 0.426385 -1.91991 0.00997287 0.00898984 -2.0786 0.0740866 0.459325 3.99698 -0.132494
192.962 83.1883 -1.86653 69.0568 -87.703 -61.524 0.524037 -0.232819 2.38193 0.609361 -1.55386 0.745278 -2.197 3.71132 -0.576294 1.68061 3.07764 -1.86376 -0.0 0.0 0.0 -0.0 0.0 0.0 1.48575e-14 1.13797e-13 1.30938e-14 22.7541 -6.27584 -5.17623 -7.37696 -4.36465 10.2118 3.56743 -44.0499 -0.991025 -7.14409e-12 1.41014e-11 -3.10966e-11 -1.57649e-12 2.38139e-11 -5.2992e-11 -7.13765e-12 1.41032e-11 -3.11002e-11 7.73091 5.47488 0.417314 -7.14447e-12 1.4101e-11 -3.10961e-11 2.90554 0.965183 0.102902 -7.13967e-12 1.41004e-11 -3.1097e-11 10.2786 0.731801 0.0259123 -7.1479e-12 1.40994e-11 -3.10869e-11 2.22167 -0.733487 -0.20892 1.47825e-14 1.13799e-13 1.28216e-14 -24.8322 1.76075 5.82471 24.9926 -22.8195 -14.469 -0.0544415 5.20175 -0.720395 1.31062e-10 -3.37364e-10 -1.69307e-10 2.24802e-10 -5.83599e-10 -2.94816e-10 1.31053e-10 -3.37366e-10 -1.69296e-10 -7.73091 5.47488 -0.417314 1.31062e-10 -3.37366e-10 -1.6931e-10 -2.90554 0.965183 -0.102902 1.31054e-10 -3.37366e-10 -1.69305e-10 -10.2786 0.731801 -0.0259123 1.31067e-10 -3.37363e-10 -1.69311e-10 -2.22167 -0.733487 0.20892 -2.03217e-16 0.0 -3.88251e-19 1.69074 -7.30298 -2.4531 0.0291804 13.322 0.206365 -0.748909 0.175658 -3.88377 2.03217e-16 0.0 3.88251e-19 0.698311 -9.60626 0.05436 -0.0680283 9.19134 -0.148436 0.949174 -3.32271 3.33544
193.387 83.2173 -2.23417 72.4664 -88.568 -65.7167 -0.159832 -0.497042 4.87297 0.949816 -3.17915 1.47728 -4.43651 7.62604 -1.18696 3.65506 6.37817 -3.84502 -0.0 0.0 0.0 -0.0 0.0 0.0 2.62354e-14 2.38197e-13 2.80504e-14 45.5404 -12.8102 -10.9201 -13.5 -8.50906 21.1827 -104.161 -88.4084 -112.909 -6.21097e-11 3.19128e-11 -6.31279e-11 -8.48251e-11 5.36981e-11 -1.07908e-10 -6.21029e-11 3.19145e-11 -6.31281e-11 7.73091 5.47488 0.417314 -6.21098e-11 3.19123e-11 -6.31304e-11 2.90554 0.965183 0.102902 -6.21026e-11 3.19106e-11 -6.3128e-11 10.2786 0.731801 0.0259123 -6.21134e-11 3.1908e-11 -6.31179e-11 2.22167 -0.733487 -0.20892 2.61833e-14 2.38198e-13 2.7805e-14 -51.4614 3.58197 11.9737 35.9578 -41.7251 -37.9794 0.0325061 10.6418 -1.49422 2.23313e-10 -7.01651e-10 -3.54393e-10 3.82448e-10 -1.21375e-09 -6.17062e-10 2.23299e-10 -7.01657e-10 -3.54375e-10 -7.73091 5.47488 -0.417314 2.23312e-10 -7.01655e-10 -3.54394e-10 -2.90554 0.965183 -0.102902 2.23305e-10 -7.01655e-10 -3.5439e-10 -10.2786 0.731801 -0.0259123 2.23319e-10 -7.01651e-10 -3.54395e-10 -2.22167 -0.733487 0.20892 -2.03217e-16 0.0 -3.88251e-19 1.89625 -8.83794 -4.91556 0.00204346 22.0923 0.397432 -1.12111 -0.427274 -8.08988 2.03217e-16 0.0 3.88251e-19 0.969521 -17.6761 0.101371 -0.0491866 21.0303 -0.405775 2.45428 -11.0401 7.14332
193.745 83.1652 -2.58959 93.1761 -89.5118 -87.285 -0.709473 -0.683928 7.08168 1.2947 -4.64932 2.13019 -6.36341 11.1294 -1.75834 5.6481 9.19359 -5.65611 -0.0 0.0 0.0 -0.0 0.0 0.0 3.53315e-14 3.414e-13 3.89831e-14 64.7565 -18.1978 -16.27 -17.6345 -11.4306 31.2322 -164.873 -47.7934 -176.818 -1.08065e-10 4.23362e-11 -9.31243e-11 -1.54312e-10 7.1499e-11 -1.58685e-10 -1.08058e-10 4.23375e-11 -9.31225e-11 7.73091 5.47488 0.417314 -1.08065e-10 4.23355e-11 -9.31294e-11 2.90554 0.965183 0.102902 -1.08055e-10 4.23331e-11 -9.31241e-11 10.2786 0.731801 0.0259123 -1.08068e-10 4.23292e-11 -9.31143e-11 2.22167 -0.733487 -0.20892 3.53e-14 3.41401e-13 3.8763e-14 -75.5555 5.06421 17.5365 31.0534 -46.2631 -68.2302 0.241753 15.5952 -2.23459 3.06591e-10 -1.01209e-09 -5.07742e-10 5.24843e-10 -1.75078e-09 -8.84138e-10 3.06574e-10 -1.0121e-09 -5.07717e-10 -7.73091 5.47488 -0.417314 3.0659e-10 -1.01209e-09 -5.0774e-10 -2.90554 0.965183 -0.102902 3.06583e-10 -1.01209e-09 -5.07737e-10 -10.2786 0.731801 -0.0259123 3.06597e-10 -1.01209e-09 -5.07742e-10 -2.22167 -0.733487 0.20892 -2.03217e-16 0.0 -3.88251e-19 2.00107 -10.1574 -7.16834 -0.0782879 29.8969 0.599759 -1.54649 -1.07089 -11.7955 2.03217e-16 0.0 3.88251e-19 1.28124 -24.9789 0.155394 0.0755619 31.7294 -0.690937 4.67283 -17.6823 10.7682
